<?xml version="1.0" encoding="UTF-8"?><svg xmlns="http://www.w3.org/2000/svg" xmlns:xlink="http://www.w3.org/1999/xlink" viewBox="0 0 50 50" version="1.1"><path fill="white" d="M1 12a1.02 1.02 0 0 0-.875.5c-.18.309-.176.691 0 1l6.531 11.438 5.25-9.157-1.437-2.406A2.897 2.897 0 0 0 8 12zm15.969 0c-.36 0-.696.188-.875.5l-8.032 14a1.014 1.014 0 0 0 0 1L14.657 39a5.998 5.998 0 0 0 5.188 3h2.375l4.406-8h-5.563l-3.937-7 8.594-15zm11.062 0l-4.593 8h5.5l3.906 6.969.093.031L24.5 42H33c.36 0 .695-.188.875-.5l8.031-14c.18-.309.176-.691 0-1L35.313 15a5.993 5.993 0 0 0-5.188-3zm15.313 17.031l-5.25 9.157 1.437 2.406A2.902 2.902 0 0 0 42 41.969h7c.355 0 .695-.192.875-.5.18-.309.176-.692 0-1z" id="surface1"/><metadata><rdf:RDF xmlns:rdf="http://www.w3.org/1999/02/22-rdf-syntax-ns#" xmlns:rdfs="http://www.w3.org/2000/01/rdf-schema#" xmlns:dc="http://purl.org/dc/elements/1.1/"><rdf:Description about="https://iconscout.com/legal#licenses" dc:title="game,maker,filled" dc:description="game,maker,filled" dc:publisher="Iconscout" dc:date="2017-12-09" dc:format="image/svg+xml" dc:language="en"><dc:creator><rdf:Bag><rdf:li>Icons8</rdf:li></rdf:Bag></dc:creator></rdf:Description></rdf:RDF></metadata></svg>